<?xml version="1.0" encoding="UTF-8"?>
<!-- Generator: visioncortex VTracer 0.6.1 -->
<svg version="1.1" xmlns="http://www.w3.org/2000/svg" width="1280" height="1280">
<path d="M0 0 C1.65 0.33 3.3 0.66 5 1 C4.55119384 6.46553503 4.04663868 11.90860543 3.28125 17.33984375 C1.09586939 32.88524907 0.31663618 48.31163962 0 64 C5.2245432 60.3675899 9.4886065 56.76362088 13.25 51.625 C13.6732959 51.06208252 14.0965918 50.49916504 14.53271484 49.91918945 C17.57291898 45.7948861 19.97485482 41.69465474 22 37 C22.99 37.99 23.98 38.98 25 40 C20.12060041 54.40584641 14.18169286 64.43318638 3 75 C0.78944495 76.74710214 0.78944495 76.74710214 0.96899414 78.85327148 C1.12549438 79.97584351 1.12549438 79.97584351 1.28515625 81.12109375 C1.40052734 81.96349609 1.51589844 82.80589844 1.63476562 83.67382812 C1.77591797 84.58583984 1.91707031 85.49785156 2.0625 86.4375 C2.20751953 87.38689453 2.35253906 88.33628906 2.50195312 89.31445312 C5.51620408 108.08785842 11.89888692 125.29872798 18.80175781 142.92724609 C20.23619671 146.60569922 21.6263381 150.29848824 23 154 C15.96094956 154.93854006 9.09727428 155.10808032 2 155 C-5.59239148 137.73685289 -8.96384374 119.51503288 -12 101 C-12.11706299 100.29979736 -12.23412598 99.59959473 -12.35473633 98.87817383 C-16.71465581 69.25945101 -13.56728943 27.13457886 0 0 Z " fill="#000000" transform="translate(634,484)"/>
<path d="M0 0 C7.3181855 4.79423591 14.00795503 9.38743923 19.25390625 16.4765625 C19.25390625 17.1365625 19.25390625 17.7965625 19.25390625 18.4765625 C17.77857422 18.50169922 17.77857422 18.50169922 16.2734375 18.52734375 C5.71394464 19.06293279 -2.05500579 22.08599112 -11.17260742 27.40161133 C-21.76102634 33.51837767 -32.31670444 36.30689316 -44.3828125 33.28515625 C-53.13037235 30.29218949 -58.3509776 25.51640912 -62.74609375 17.4765625 C-61.67875 17.51136719 -60.61140625 17.54617188 -59.51171875 17.58203125 C-48.43696319 17.82606834 -37.98736616 16.72518814 -27.08203125 14.86572266 C-23.5612454 14.27917033 -20.03087083 13.78435889 -16.49609375 13.2890625 C-14.81773437 13.05123047 -14.81773437 13.05123047 -13.10546875 12.80859375 C-12.326875 12.69902344 -11.54828125 12.58945312 -10.74609375 12.4765625 C-16.59681981 12.22340608 -22.13933705 12.62393613 -27.93359375 13.4765625 C-34.98041812 14.47854233 -41.94527221 14.66850174 -49.05859375 14.6640625 C-50.57199341 14.6650293 -50.57199341 14.6650293 -52.1159668 14.66601562 C-59.34005972 14.61190718 -59.34005972 14.61190718 -62.74609375 13.4765625 C-61.91615849 7.5645545 -59.04332688 4.4474235 -54.74609375 0.4765625 C-38.40896857 -11.41686463 -17.01073905 -10.21270889 0 0 Z " fill="#000000" transform="translate(732.74609375,508.5234375)"/>
<path d="M0 0 C0.78375 0.00451172 1.5675 0.00902344 2.375 0.01367188 C4.29170014 0.02535907 6.20836048 0.04329092 8.125 0.0625 C7.25875 1.031875 6.3925 2.00125 5.5 3 C-0.8851779 10.52007094 -4.77640122 17.54825052 -7.4375 27.0625 C-10.78173549 38.84462405 -15.18594056 49.69390256 -26.0625 56.4140625 C-31.56911333 59.22810387 -36.24625067 60.24414262 -42.4375 60.25 C-43.12263672 60.26224609 -43.80777344 60.27449219 -44.51367188 60.28710938 C-46.30234112 60.29237533 -48.09048848 60.18450021 -49.875 60.0625 C-50.535 59.4025 -51.195 58.7425 -51.875 58.0625 C-50.68003906 56.99322266 -50.68003906 56.99322266 -49.4609375 55.90234375 C-48.39042044 54.93512219 -47.32011957 53.96766132 -46.25 53 C-45.72792969 52.53400391 -45.20585938 52.06800781 -44.66796875 51.58789062 C-38.18939622 45.70918592 -33.14289267 39.15808753 -28.25 31.9375 C-22.76437335 23.98089397 -16.63360158 16.95291828 -9.875 10.0625 C-19.71704078 16.56196089 -26.56152562 25.8655015 -33.5 35.25 C-39.3819987 43.19069824 -45.36338317 50.85130602 -53.875 56.0625 C-54.535 56.0625 -55.195 56.0625 -55.875 56.0625 C-59.27164343 48.20776207 -58.69587544 39.51061704 -55.96875 31.53125 C-50.14937006 18.39607814 -38.98725734 9.32432198 -25.875 4.0625 C-17.25705151 1.19734112 -9.05317761 -0.0997384 0 0 Z " fill="#000000" transform="translate(721.875,432.9375)"/>
<path d="M0 0 C0.66 0 1.32 0 2 0 C2.639375 0.845625 3.27875 1.69125 3.9375 2.5625 C11.46399998 11.64547165 21.66623925 14.47623811 32.67529297 17.33959961 C43.45855921 20.27561947 51.60186482 26.55301004 57.32421875 36.2421875 C60.56747302 43.18388962 60.87362727 50.44210828 60 58 C59.34 58.66 58.68 59.32 58 60 C57.28714844 59.20335937 56.57429687 58.40671875 55.83984375 57.5859375 C48.273977 49.1864869 40.65170478 42.4245275 31.40844727 35.88452148 C22.29968382 29.41075429 14.13554566 22.64852669 7 14 C12.65982237 23.35101087 20.11812951 30.41373492 28.9375 36.76953125 C32.95862021 39.69817875 36.77926595 42.83793484 40.6015625 46.01953125 C41.96953029 47.14910726 43.35194082 48.26279281 44.7734375 49.32421875 C49.63323622 52.98835271 52.70242806 57.97559305 56 63 C48.35153061 67.17500343 40.16397699 66.28961394 32 64 C20.73502438 60.06239454 12.57037183 51.53774294 7.30859375 40.984375 C1.84001793 28.51275732 -3.84071686 13.73440349 0 0 Z M4 9 C5 11 5 11 5 11 Z " fill="#000000" transform="translate(554,434)"/>
<path d="M0 0 C1.16101256 2.32202512 1.04171402 3.49339779 0.9375 6.0625 C0.92044004 16.84439526 5.19944323 24.79426966 10.06201172 34.16601562 C15.42129353 44.64465304 17.98995088 54.27233498 15.28125 66.15234375 C12.26141945 75.02918435 7.7305531 79.84629794 0 85 C-0.95360382 82.13918854 -1.07574082 80.64064173 -0.95703125 77.703125 C-0.61832472 65.4583708 -1.71990436 54.22610559 -4.04296875 42.2109375 C-5.20566692 36.15700199 -5.76342285 30.16283479 -6 24 C-6.46696013 35.29351716 -5.46116547 46.21077051 -4.06713867 57.41723633 C-2.95700738 66.4955114 -2.68085401 74.93087134 -4 84 C-5.485 84.495 -5.485 84.495 -7 85 C-14.58649026 81.20675487 -20.82444423 73.56060173 -23.875 65.75 C-28.34872939 50.83756871 -25.49291572 35.89904805 -18.4375 22.25 C-14.39401902 14.80976054 -8.99942736 8.93158246 -3 3 C-2.39800781 2.39671875 -1.79601562 1.7934375 -1.17578125 1.171875 C-0.78777344 0.78515625 -0.39976562 0.3984375 0 0 Z M-4 10 C-3 12 -3 12 -3 12 Z M-5 12 C-5 13.65 -5 15.3 -5 17 C-4.67 17 -4.34 17 -4 17 C-4 15.35 -4 13.7 -4 12 C-4.33 12 -4.66 12 -5 12 Z " fill="#000000" transform="translate(640,389)"/>
<path d="M0 0 C2.59950815 2.64403934 4.0736786 5.59011239 5.82421875 8.85546875 C5.23858154 8.83452148 4.65294434 8.81357422 4.04956055 8.79199219 C-9.43368162 8.38021056 -22.15877549 9.20892296 -35.46533203 11.42382812 C-44.78683288 12.93049814 -53.75798781 13.29865903 -63.17578125 12.85546875 C-58.45650066 13.7726957 -53.84665403 14.08426867 -49.05078125 14.10546875 C-47.84578979 14.11139038 -47.84578979 14.11139038 -46.61645508 14.11743164 C-37.81359465 14.0377566 -29.11947931 12.98806445 -20.39990234 11.83496094 C-12.281998 10.829987 -4.28369663 10.4988027 3.82421875 11.85546875 C4.81421875 12.84546875 4.81421875 12.84546875 5.82421875 13.85546875 C0.16721495 23.06314515 -5.94568588 29.53583996 -16.62890625 32.546875 C-32.65724677 36.06229324 -48.41764009 31.27712535 -62.29492188 23.09716797 C-67.47500843 19.67739639 -71.86861542 15.29315476 -76.17578125 10.85546875 C-75.84578125 9.53546875 -75.51578125 8.21546875 -75.17578125 6.85546875 C-74.20640625 6.80390625 -73.23703125 6.75234375 -72.23828125 6.69921875 C-61.77854647 5.90222385 -54.15390929 2.85069465 -45.03027344 -2.15917969 C-42.26875867 -3.62646163 -39.43038508 -4.86619852 -36.55078125 -6.08203125 C-35.65101563 -6.46230469 -34.75125 -6.84257812 -33.82421875 -7.234375 C-21.19660726 -11.5739524 -10.36882136 -7.41251171 0 0 Z " fill="#000000" transform="translate(603.17578125,515.14453125)"/>
<path d="M0 0 C5.55010083 -0.07453648 11.09990586 -0.12878399 16.65039062 -0.16479492 C18.53585897 -0.17981793 20.42129275 -0.20024231 22.30664062 -0.22631836 C25.0274309 -0.26298863 27.74775641 -0.27979146 30.46875 -0.29296875 C31.30241089 -0.30845261 32.13607178 -0.32393646 32.99499512 -0.33988953 C39.2900588 -0.34167205 45.05920881 0.54469047 50.05859375 4.71875 C50.51363281 5.3065625 50.96867187 5.894375 51.4375 6.5 C51.91058594 7.0878125 52.38367188 7.675625 52.87109375 8.28125 C55.45936605 12.22187219 55.45930676 16.45026322 55 21 C52.84344055 27.34282192 48.16516792 31.38061176 42.3125 34.375 C40 35 40 35 36 35 C36 35.66 36 36.32 36 37 C36.721875 37.0825 37.44375 37.165 38.1875 37.25 C42.25112732 38.33363395 44.84741805 40.04061068 47.015625 43.7265625 C49.28961084 48.91538473 49.47386755 53.54160775 48 59 C43.81118422 67.21652325 36.54742645 72.05521527 28 75 C23.07566831 76.3202185 18.16251013 76.12618905 13.10546875 76.09765625 C12.15811356 76.0962413 11.21075836 76.09482635 10.23469543 76.09336853 C7.21893105 76.08778611 4.20324182 76.07523682 1.1875 76.0625 C-0.86132705 76.05748273 -2.91015527 76.05292022 -4.95898438 76.04882812 C-9.97268506 76.03782243 -14.9863298 76.02056988 -20 76 C-20.33 75.34 -20.66 74.68 -21 74 C-20.67 73.01 -20.34 72.02 -20 71 C-16.37 71 -12.74 71 -9 71 C-8.78883545 70.05632568 -8.5776709 69.11265137 -8.36010742 68.14038086 C-5.65258072 56.24549744 -2.47153183 44.49724662 0.80102539 32.74682617 C1.70027828 29.51659885 2.59363114 26.28477895 3.48632812 23.05273438 C4.05695112 20.99469722 4.62790204 18.93675094 5.19921875 16.87890625 C5.46586838 15.91449112 5.73251801 14.95007599 6.00724792 13.95643616 C6.2545314 13.07048264 6.50181488 12.18452911 6.7565918 11.27172852 C6.97324997 10.49249527 7.18990814 9.71326202 7.41313171 8.91041565 C8 7 8 7 9 5 C5.7 5 2.4 5 -1 5 C-0.67 3.35 -0.34 1.7 0 0 Z M20 5 C17.5784684 11.07868344 15.84174626 17.14277082 14.3125 23.5 C14.08755859 24.4178125 13.86261719 25.335625 13.63085938 26.28125 C13.08287859 28.51980981 12.53935655 30.75934965 12 33 C15.16616599 33.14700056 18.33143982 33.23462106 21.5 33.3125 C22.386875 33.35439453 23.27375 33.39628906 24.1875 33.43945312 C30.62234174 33.55774066 35.13933889 32.37065155 40 28 C43.41641461 23.22079524 44.76913763 18.93334747 44 13 C42.42275698 9.01933905 41.58999089 7.39332726 38 5 C35.97078331 4.72598982 35.97078331 4.72598982 33.76953125 4.8046875 C32.96708984 4.81113281 32.16464844 4.81757812 31.33789062 4.82421875 C30.50451172 4.84097656 29.67113281 4.85773437 28.8125 4.875 C27.5450293 4.88853516 27.5450293 4.88853516 26.25195312 4.90234375 C24.16784757 4.92589297 22.08388783 4.96176353 20 5 Z M11 38 C8.49610865 44.33867991 6.58492994 50.73481557 4.8125 57.3125 C4.40354492 58.79459961 4.40354492 58.79459961 3.98632812 60.30664062 C3.72916016 61.25345703 3.47199219 62.20027344 3.20703125 63.17578125 C2.9747583 64.03083252 2.74248535 64.88588379 2.50317383 65.7668457 C1.89009545 68.10624812 1.89009545 68.10624812 2 71 C5.70806596 71.11674705 9.4156554 71.18743274 13.125 71.25 C14.17171875 71.28351563 15.2184375 71.31703125 16.296875 71.3515625 C22.54421914 71.43064281 26.29345816 71.26267286 31 67 C36.13841572 60.19507107 36.81715388 54.35926333 36 46 C34.54721188 42.22418929 32.37317905 40.24878603 29 38 C26.97078331 37.72598982 26.97078331 37.72598982 24.76953125 37.8046875 C23.96708984 37.81113281 23.16464844 37.81757812 22.33789062 37.82421875 C21.50451172 37.84097656 20.67113281 37.85773437 19.8125 37.875 C18.5450293 37.88853516 18.5450293 37.88853516 17.25195312 37.90234375 C15.16784757 37.92589297 13.08388783 37.96176353 11 38 Z " fill="#000000" transform="translate(378,666)"/>
<path d="M0 0 C6.27 0 12.54 0 19 0 C23.78036088 11.02447568 27.74996316 22.29954829 31.75 33.625 C32.77497283 36.52003119 33.80088268 39.41472442 34.82818604 42.30892944 C35.46296026 44.09796406 36.09627432 45.88751758 36.72796631 47.67764282 C37.0120636 48.47963104 37.29616089 49.28161926 37.58886719 50.10791016 C37.83803894 50.81339996 38.08721069 51.51888977 38.34393311 52.24575806 C38.99094808 54.06986838 38.99094808 54.06986838 40 56 C42.09901809 50.57232086 43.92745859 45.15155206 45.515625 39.5546875 C45.73571228 38.7811795 45.95579956 38.00767151 46.18255615 37.21072388 C46.64164561 35.58946321 47.09867435 33.96761769 47.55371094 32.34521484 C48.25104451 29.87129439 48.96528831 27.40263184 49.6796875 24.93359375 C50.12605399 23.3492549 50.57140208 21.76462871 51.015625 20.1796875 C51.23011292 19.44829559 51.44460083 18.71690369 51.66558838 17.96334839 C52.85776776 13.61950935 53.09779344 10.37828888 52 6 C50.700625 5.87625 49.40125 5.7525 48.0625 5.625 C45.84765625 5.4140625 45.84765625 5.4140625 44 5 C43.505 4.01 43.505 4.01 43 3 C43.66 2.01 44.32 1.02 45 0 C47.79736328 -0.34057617 47.79736328 -0.34057617 51.3203125 -0.29296875 C52.57714844 -0.28330078 53.83398438 -0.27363281 55.12890625 -0.26367188 C57.10697266 -0.2259668 57.10697266 -0.2259668 59.125 -0.1875 C60.46482903 -0.17245483 61.80467404 -0.15876613 63.14453125 -0.14648438 C66.43008842 -0.11102872 69.71484582 -0.06160849 73 0 C73.495 0.99 73.495 0.99 74 2 C73.34 2.99 72.68 3.98 72 5 C70.02819216 5.19082011 68.05120319 5.37584179 66.0703125 5.3984375 C62.84282813 6.33623484 61.87724381 8.25446037 60 11 C59.01447634 13.72108401 58.18850392 16.32115923 57.44921875 19.10546875 C57.22945374 19.89462677 57.00968872 20.68378479 56.78326416 21.49685669 C56.07326385 24.0574124 55.38039071 26.62226728 54.6875 29.1875 C54.20168277 30.9491102 53.71477903 32.71042112 53.22680664 34.47143555 C51.0374627 42.39835165 48.90161753 50.3393017 46.796875 58.2890625 C46.47759033 59.49151611 46.15830566 60.69396973 45.8293457 61.93286133 C45.24717479 64.13899107 44.67244692 66.34710221 44.10620117 68.55737305 C43.85330322 69.52457275 43.60040527 70.49177246 43.33984375 71.48828125 C43.12706787 72.31884033 42.91429199 73.14939941 42.69506836 74.00512695 C42 76 42 76 40 78 C38.68 78 37.36 78 36 78 C29.74812879 61.33813384 23.69833441 44.6181357 17.84863281 27.81103516 C17.35612204 26.40266849 16.86360912 24.99430256 16.37109375 23.5859375 C16.03267708 22.60654205 16.03267708 22.60654205 15.68742371 21.60736084 C14.76626659 18.56211907 14.76626659 18.56211907 13 16 C11.11094263 22.55992961 9.24353644 29.125746 7.39086914 35.69604492 C6.7584409 37.9292211 6.12111741 40.1610171 5.47875977 42.39135742 C4.55487058 45.60242695 3.6488546 48.81809187 2.74609375 52.03515625 C2.31181313 53.52306419 2.31181313 53.52306419 1.86875916 55.04103088 C0.36250641 60.48207505 -0.31796537 64.47661843 1 70 C3.64 70.33 6.28 70.66 9 71 C8.67 72.65 8.34 74.3 8 76 C-1.24 76 -10.48 76 -20 76 C-20.33 75.01 -20.66 74.02 -21 73 C-20.505 72.01 -20.505 72.01 -20 71 C-17.7675985 70.76453372 -15.56830658 70.74921194 -13.32421875 70.734375 C-9.72305259 69.59652754 -8.87482684 67.19838192 -7 64 C-6.09729044 61.51625418 -5.32291164 59.13929324 -4.6328125 56.6015625 C-4.43246399 55.8972258 -4.23211548 55.1928891 -4.0256958 54.46720886 C-3.38125939 52.18936631 -2.75268496 49.90750977 -2.125 47.625 C-1.68495098 46.05412827 -1.2443549 44.48340968 -0.80322266 42.9128418 C2.70997139 30.33624862 5.96374944 17.70041392 9 5 C5.7 5 2.4 5 -1 5 C-0.67 3.35 -0.34 1.7 0 0 Z " fill="#000000" transform="translate(669,666)"/>
<path d="M0 0 C5.94 0 11.88 0 18 0 C19.11385265 4.4554106 18.66630614 6.08730925 17.41796875 10.41796875 C17.06283203 11.67287109 16.70769531 12.92777344 16.34179688 14.22070312 C15.95750456 15.54310639 15.57273565 16.86537124 15.1875 18.1875 C14.44787452 20.76321611 13.71406037 23.34052028 12.98046875 25.91796875 C12.63419434 27.13403809 12.28791992 28.35010742 11.93115234 29.60302734 C10.80463248 33.71272777 9.86184507 37.82757547 9 42 C9.54269531 41.24074219 10.08539062 40.48148438 10.64453125 39.69921875 C11.35996094 38.70535156 12.07539062 37.71148438 12.8125 36.6875 C13.52019531 35.70136719 14.22789062 34.71523438 14.95703125 33.69921875 C19.02451613 28.32516129 19.02451613 28.32516129 23 27 C26.5 26.6875 26.5 26.6875 30 27 C32.9591608 29.86052211 33.87037874 32.80748437 34.3125 36.875 C34.15899754 45.98920835 29.70571458 55.11925066 25.953125 63.24609375 C24.89035558 66.31680048 24.82892994 68.77342852 25 72 C29.79795085 69.70460728 31.44538491 67.00031616 33.8125 62.3125 C34.27946289 61.40274414 34.27946289 61.40274414 34.75585938 60.47460938 C35.51608584 58.98924381 36.25975462 57.49542366 37 56 C37.99 56 38.98 56 40 56 C39.61690085 63.27888382 35.28403269 70.2313444 30 75.125 C26.59266723 77.25458298 24.93959536 77.70037251 21 77 C18.44050454 75.14657225 18.02081202 74.06243607 17 71 C15.44607818 59.7007685 20.90666753 49.34365916 25.203125 39.18359375 C26.06907542 36.81071982 26.56332332 34.48469029 27 32 C20.71823155 33.60696402 17.57383893 36.6392416 14.0078125 41.98828125 C9.37506156 50.16768177 5.39674421 58.4744093 1.77490234 67.14794922 C0.53671334 70.10727555 -0.73359313 73.05265668 -2 76 C-4.31 76 -6.62 76 -9 76 C-8.40305084 70.21805091 -7.29577596 64.86171634 -5.70703125 59.27734375 C-5.48019653 58.4618959 -5.25336182 57.64644806 -5.01965332 56.80628967 C-4.53706462 55.0733884 -4.05199356 53.34117676 -3.56460571 51.60961914 C-2.3028889 47.12692795 -1.05884485 42.63932817 0.1875 38.15234375 C0.55460335 36.83367813 0.55460335 36.83367813 0.92912292 35.4883728 C3.7446866 25.35799883 6.39829231 15.18727736 9 5 C5.7 4.67 2.4 4.34 -1 4 C-0.67 2.68 -0.34 1.36 0 0 Z " fill="#000000" transform="translate(608,666)"/>
<path d="M0 0 C3 1.8125 3 1.8125 5 4 C5 4.99 5 5.98 5 7 C5.66 7 6.32 7 7 7 C7.33 5.02 7.66 3.04 8 1 C10.64 1 13.28 1 16 1 C14.37122585 10.00346615 11.94841224 18.73987491 9.47851562 27.54296875 C7.87145783 33.37750977 6.53831142 38.96796249 6 45 C11.23925734 42.90429706 12.71112009 39.2092636 14.984375 34.375 C16.07109046 31.92381849 16.07109046 31.92381849 17 29 C18.32 29 19.64 29 21 29 C19.67527553 36.90606839 16.20901632 44.06165851 9.76953125 49 C6.98228831 50.57513067 5.09346327 50.70305983 2 50 C-0.64719559 47.44734711 -1.76341941 44.42437702 -3 41 C-3.38671875 41.48210938 -3.7734375 41.96421875 -4.171875 42.4609375 C-4.69265625 43.09257813 -5.2134375 43.72421875 -5.75 44.375 C-6.26046875 45.00148438 -6.7709375 45.62796875 -7.296875 46.2734375 C-10.17366399 49.18981533 -12.36891952 49.94262905 -16.4375 50.3125 C-21.17361557 49.89705127 -23.6377223 48.5568888 -26.75 45 C-30.43617109 39.10212626 -29.69990659 31.50399096 -28.38671875 24.9296875 C-25.84483014 16.35221315 -21.21080089 7.59065498 -13.6875 2.375 C-9.17769795 0.06765942 -5.02769867 -0.7238321 0 0 Z M-11 8 C-17.15521593 18.33906086 -21.58088266 30.84568134 -20 43 C-19.34 43.99 -18.68 44.98 -18 46 C-14.72639706 45.93452794 -12.05097969 45.80086674 -9.375 43.76171875 C-0.79673518 34.40158083 2.17698859 22.21460115 2.36328125 9.890625 C2.2397046 7.00853511 2.2397046 7.00853511 0.62890625 5.13671875 C-4.01482387 1.8961301 -7.39212756 4.64824196 -11 8 Z " fill="#000000" transform="translate(854,693)"/>
<path d="M0 0 C2.9375 2.4375 2.9375 2.4375 5 5 C5.495 5.495 5.495 5.495 6 6 C6.66 4.35 7.32 2.7 8 1 C10.64 1 13.28 1 16 1 C14.37122585 10.00346615 11.94841224 18.73987491 9.47851562 27.54296875 C7.87145783 33.37750977 6.53831142 38.96796249 6 45 C10.79795085 42.70460728 12.44538491 40.00031616 14.8125 35.3125 C15.27946289 34.40274414 15.27946289 34.40274414 15.75585938 33.47460938 C16.51608584 31.98924381 17.25975462 30.49542366 18 29 C18.99 29 19.98 29 21 29 C18.69707164 37.08833373 15.61182104 45.54429988 8 50 C4.875 50.5 4.875 50.5 2 50 C-0.64719559 47.44734711 -1.76341941 44.42437702 -3 41 C-3.721875 41.928125 -4.44375 42.85625 -5.1875 43.8125 C-8.73468749 48.00372991 -11.35879988 49.79159364 -16.9375 50.5 C-20.36275992 50.35755063 -21.26980551 49.83012246 -24.375 47.875 C-28.66096061 43.18085266 -29.42246244 38.72368548 -29.24609375 32.55078125 C-28.20850034 21.7960432 -24.59404516 11.85688387 -16.4375 4.5 C-11.45653395 0.65008301 -6.32626635 -1.30359428 0 0 Z M-11 8 C-17.61037582 18.11357037 -21.60255121 30.86639798 -20 43 C-19.34 43.99 -18.68 44.98 -18 46 C-14.46105279 46 -12.12861515 45.98719163 -9.41015625 43.609375 C-1.77163331 33.96497999 3.87477995 21.36018083 2.58203125 8.98046875 C1.87287618 6.56743775 0.95821544 5.55125135 -1 4 C-5.66387295 3.14086551 -7.63394239 4.91964172 -11 8 Z " fill="#000000" transform="translate(765,693)"/>
<path d="M0 0 C2.98873292 2.6151413 3.86142688 4.15123966 4.5 8.0625 C4 11 4 11 2.3125 13.4375 C0 15 0 15 -2.6875 14.8125 C-5 14 -5 14 -6 13 C-6.29356154 9.37940768 -5.85064319 7.12296038 -4 4 C-8.08749535 4.28517409 -10.93959141 4.96952747 -13.76953125 8.07421875 C-17.37712228 13.72038503 -19.38599902 20.54399608 -21 27 C-17.7 27.33 -14.4 27.66 -11 28 C-11 29.32 -11 30.64 -11 32 C-14.96 32 -18.92 32 -23 32 C-23.23074219 33.01690918 -23.46148438 34.03381836 -23.69921875 35.08154297 C-26.1717594 45.85187979 -28.99699369 56.49181353 -32 67.125 C-32.85562142 70.1688635 -33.70928877 73.21327263 -34.5625 76.2578125 C-34.87018311 77.35394867 -34.87018311 77.35394867 -35.18408203 78.472229 C-37.18818454 85.63090712 -39.10533083 92.81163575 -41 100 C-43.97 100 -46.94 100 -50 100 C-46.95235963 86.26526972 -43.19258689 72.76992821 -39.3125 59.25 C-38.42086093 56.13493096 -37.53037762 53.01954287 -36.64213562 49.90350342 C-36.09447268 47.9830131 -35.54478305 46.06309919 -34.99275208 44.14385986 C-34.7454686 43.27815369 -34.49818512 42.41244751 -34.2434082 41.52050781 C-34.02675003 40.76570129 -33.81009186 40.01089478 -33.58686829 39.23321533 C-32.95720428 36.83714904 -32.46337244 34.43321179 -32 32 C-35.3 32 -38.6 32 -42 32 C-41.67 30.68 -41.34 29.36 -41 28 C-37.37 28 -33.74 28 -30 28 C-29.773125 26.700625 -29.54625 25.40125 -29.3125 24.0625 C-27.31700614 15.12493593 -22.23875514 7.20069266 -14.9375 1.6875 C-9.90107894 -1.20576316 -5.62290915 -1.67074145 0 0 Z " fill="#000000" transform="translate(833,666)"/>
<path d="M0 0 C3.65133416 3.21665152 5.40274493 5.49741693 6 10.375 C5.57753528 13.68430695 5.10811545 15.08625856 2.625 17.3125 C0.125 17.8125 0.125 17.8125 -2.375 17.3125 C-4.3125 15.625 -4.3125 15.625 -5.375 13.3125 C-4.5625 10.5625 -4.5625 10.5625 -3.375 8.3125 C-2.715 8.3125 -2.055 8.3125 -1.375 8.3125 C-1.375 6.9925 -1.375 5.6725 -1.375 4.3125 C-5.09790177 3.07153274 -8.51342512 2.64386155 -12.375 3.3125 C-15.48114087 5.33458359 -15.48114087 5.33458359 -17.375 8.3125 C-17.8304093 10.80388137 -17.8304093 10.80388137 -17.375 13.3125 C-15.94704205 15.02769228 -15.94704205 15.02769228 -13.91015625 16.328125 C-13.19279297 16.85792969 -12.47542969 17.38773438 -11.73632812 17.93359375 C-10.21372333 19.01248279 -8.68510748 20.0829423 -7.15039062 21.14453125 C-1.75715178 25.15922923 -1.75715178 25.15922923 -0.60839844 28.62597656 C0.04183505 33.71018313 -0.40498961 36.95648476 -3.375 41.3125 C-7.33800354 46.02526096 -10.61546786 47.90791459 -16.734375 48.56640625 C-22.85466027 48.85387419 -26.46667519 48.01878608 -31.375 44.3125 C-33.87654863 41.32678067 -34.34015184 39.64355751 -34.75 35.75 C-34.35617226 32.13991235 -34.15960056 30.63300046 -31.375 28.3125 C-28.3125 27.9375 -28.3125 27.9375 -25.375 28.3125 C-24.715 28.9725 -24.055 29.6325 -23.375 30.3125 C-23.75 33.4375 -23.75 33.4375 -24.375 36.3125 C-25.86 36.8075 -25.86 36.8075 -27.375 37.3125 C-27.045 38.9625 -26.715 40.6125 -26.375 42.3125 C-22.01637901 43.76537366 -17.92543501 43.93465805 -13.375 43.3125 C-10.01698841 41.53882043 -10.01698841 41.53882043 -8.375 38.3125 C-8.05345611 35.19828792 -8.50323978 33.4405808 -9.375 30.3125 C-11.17014325 29.25257976 -11.17014325 29.25257976 -13.375 28.3125 C-15.13380942 27.03999733 -16.86171328 25.72407307 -18.5625 24.375 C-19.44292969 23.68535156 -20.32335937 22.99570312 -21.23046875 22.28515625 C-23.66201557 20.0484875 -24.23524413 18.51531688 -24.61328125 15.26171875 C-24.79373211 9.76271632 -24.27946811 6.50980321 -20.375 2.3125 C-14.01668953 -2.29476335 -7.11069738 -3.55534869 0 0 Z " fill="#000000" transform="translate(554.375,694.6875)"/>
<path d="M0 0 C3.52197925 2.91821138 5.72780136 5.43340408 7.1875 9.8125 C7.1875 12.8125 7.1875 12.8125 5.5625 15.6875 C3.1875 17.8125 3.1875 17.8125 0.5625 18.25 C-1.8125 17.8125 -1.8125 17.8125 -3.8125 15.8125 C-4.125 12.8125 -4.125 12.8125 -3.8125 9.8125 C-2.8225 9.1525 -1.8325 8.4925 -0.8125 7.8125 C-1.1425 6.8225 -1.4725 5.8325 -1.8125 4.8125 C-5.03713937 3.20018032 -8.32593995 3.21918481 -11.8125 3.8125 C-14.85536953 6.03125903 -16.4883615 7.44008382 -17.36328125 11.14453125 C-16.48930203 15.37806181 -13.41152176 16.9126709 -10 19.3125 C-1.80459245 25.18162838 -1.80459245 25.18162838 0.1875 29.8125 C0.61570704 34.28921002 -0.47514091 38.09729874 -2.375 42.125 C-6.10059914 46.23271187 -9.80759669 48.39978952 -15.34375 49.16015625 C-21.91246487 49.38768704 -26.2101457 48.14092226 -31.1875 43.6875 C-33.400948 39.7713997 -33.52362008 36.2280596 -32.8125 31.8125 C-32.1525 30.8225 -31.4925 29.8325 -30.8125 28.8125 C-27.25 28.5625 -27.25 28.5625 -23.8125 28.8125 C-22.8125 29.8125 -22.8125 29.8125 -22.5 32.6875 C-22.6546875 34.234375 -22.6546875 34.234375 -22.8125 35.8125 C-24.8125 37.4375 -24.8125 37.4375 -26.8125 38.8125 C-26.8125 40.1325 -26.8125 41.4525 -26.8125 42.8125 C-22.14833034 44.12665404 -17.62143659 44.47954604 -12.8125 43.8125 C-9.45448841 42.03882043 -9.45448841 42.03882043 -7.8125 38.8125 C-7.49095611 35.69828792 -7.94073978 33.9405808 -8.8125 30.8125 C-10.62647804 29.71996862 -10.62647804 29.71996862 -12.8125 28.8125 C-14.3812658 27.72560765 -15.92233383 26.59794499 -17.4375 25.4375 C-18.21351563 24.85226562 -18.98953125 24.26703125 -19.7890625 23.6640625 C-23.12081037 20.61532024 -23.74619017 18.48664992 -24.1875 14 C-24.03654875 9.49662111 -22.83927183 6.18031654 -19.8125 2.8125 C-13.93535967 -1.68490535 -6.85778075 -2.89550743 0 0 Z " fill="#000000" transform="translate(912.8125,694.1875)"/>
<path d="M0 0 C2 1.625 2 1.625 3 3.625 C3.37820122 8.1634146 3.44746243 10.67414234 1.5 14.8125 C-3.65777232 20.61499387 -9.43789216 23.28333571 -17 24.625 C-18.99982438 24.6515037 -21.00024272 24.65615769 -23 24.625 C-23.02705308 27.04174224 -23.04686438 29.4581794 -23.0625 31.875 C-23.07087891 32.55691406 -23.07925781 33.23882813 -23.08789062 33.94140625 C-23.10428392 37.31842554 -23.05628768 40.39791639 -22 43.625 C-18.10129307 44.10239268 -14.54472484 44.43328625 -10.984375 42.5703125 C-6.48075132 38.94783258 -4.26660121 34.88351482 -2 29.625 C-0.68 29.955 0.64 30.285 2 30.625 C0.71102612 35.33974937 -1.02512058 38.27269516 -4.3125 41.875 C-5.07175781 42.72578125 -5.83101563 43.5765625 -6.61328125 44.453125 C-10.67614543 48.15026491 -14.51523892 49.10956391 -20.01171875 48.93359375 C-24.74945695 48.198267 -27.36156515 45.36424036 -30.375 41.875 C-33.77988538 35.25121037 -32.87318627 25.73989031 -31.375 18.6796875 C-28.66461669 10.95993503 -23.20550093 4.12588376 -16.0625 0.0625 C-10.65411852 -2.25841961 -5.35308524 -2.4534974 0 0 Z M-18 9.625 C-20.28732798 13.27563606 -21 16.26560636 -21 20.625 C-14.2168625 20.04024677 -9.24010304 19.2777536 -4.625 13.8125 C-2.86426637 10.35875326 -2.47962912 8.44105313 -3 4.625 C-4.81420768 2.40599732 -4.81420768 2.40599732 -7.3671875 2.30859375 C-12.09150532 2.87635301 -14.91993117 6.19825675 -18 9.625 Z " fill="#000000" transform="translate(468,694.375)"/>
<path d="M0 0 C2.86898713 2.20583925 3.52865804 4.19056961 4.1875 7.6875 C4.34605469 8.49574219 4.50460937 9.30398438 4.66796875 10.13671875 C4.77753906 10.75160156 4.88710938 11.36648438 5 12 C5.58007812 11.07767578 5.58007812 11.07767578 6.171875 10.13671875 C6.69265625 9.32847656 7.2134375 8.52023437 7.75 7.6875 C8.26046875 6.88699219 8.7709375 6.08648438 9.296875 5.26171875 C11.03017683 2.95992572 12.55815088 1.51413873 15 0 C18.32368343 -0.41546043 20.29246779 -0.34420486 23.3125 1.125 C25.66290584 3.73656205 25.93021482 5.51074078 26 9 C24.86220128 11.32731556 23.83159286 13.16840714 22 15 C19.0625 15.1875 19.0625 15.1875 16 15 C14 13 14 13 13.875 9.875 C13.91625 8.92625 13.9575 7.9775 14 7 C9.81385723 10.54212081 7.88693055 14.74930481 5.625 19.625 C5.23505859 20.45370605 4.84511719 21.28241211 4.44335938 22.13623047 C1.08097195 29.46064031 -1.5174137 36.94434373 -3.90625 44.6328125 C-5 48 -5 48 -6 49 C-8.33297433 49.04092937 -10.66705225 49.04241723 -13 49 C-12.38852225 43.29663148 -11.35981218 37.89502925 -9.93359375 32.34375 C-9.73524429 31.55601196 -9.53689484 30.76827393 -9.33253479 29.95666504 C-8.70531307 27.46995772 -8.07152681 24.98497994 -7.4375 22.5 C-7.00802633 20.80219387 -6.57898574 19.10427813 -6.15039062 17.40625 C-5.10525984 13.26955002 -4.05424318 9.13438663 -3 5 C-4.67777974 5.2719265 -6.34569863 5.60990273 -8 6 C-9.2576836 7.7206244 -9.2576836 7.7206244 -10 10 C-10.42539062 10.92296875 -10.85078125 11.8459375 -11.2890625 12.796875 C-11.72992188 13.77140625 -12.17078125 14.7459375 -12.625 15.75 C-13.29402344 17.22726562 -13.29402344 17.22726562 -13.9765625 18.734375 C-14.31429688 19.48203125 -14.65203125 20.2296875 -15 21 C-15.99 21 -16.98 21 -18 21 C-17.0606153 13.41782353 -13.69740494 6.89971032 -8.5 1.3125 C-5.38223747 -0.32432533 -3.47317373 -0.52852644 0 0 Z " fill="#000000" transform="translate(495,693)"/>
<path d="M0 0 C1.28832819 1.93249228 2.54045091 3.88986996 3.74609375 5.875 C6.92398393 10.28108691 10.94887067 13.14103251 15.22265625 16.4375 C19.6411493 20.51419682 21.4703331 24.91995368 22.08203125 30.8984375 C21.9363091 34.63170008 20.51245182 37.61210791 19 41 C18.34 41 17.68 41 17 41 C16.67 40.34 16.34 39.68 16 39 C16 40.32 16 41.64 16 43 C9.62287266 42.88612273 6.3799354 41.44859745 1.76171875 37.0390625 C-4.3987904 29.90871709 -5.53491379 22.13365294 -5 13 C-4.3207401 8.03677144 -3.5720734 3.73444037 0 0 Z M2 13 C3 15 3 15 3 15 Z M3 15 C4 17 4 17 4 17 Z M4 17 C4.33 18.32 4.66 19.64 5 21 C5.33 20.34 5.66 19.68 6 19 C5.34 18.34 4.68 17.68 4 17 Z M6 21 C6.33 21.99 6.66 22.98 7 24 C7 23.01 7 22.02 7 21 C6.67 21 6.34 21 6 21 Z M8 24 C9 26 9 26 9 26 Z M10 27 C11 29 11 29 11 29 Z M12 30 C13 32 13 32 13 32 Z M13 32 C14 34 14 34 14 34 Z " fill="#000000" transform="translate(587,400)"/>
<path d="M0 0 C0.82987427 0.2477417 0.82987427 0.2477417 1.67651367 0.50048828 C4.26616714 1.0572216 6.52885412 1.06389935 9.17578125 0.9921875 C10.16900391 0.97542969 11.16222656 0.95867187 12.18554688 0.94140625 C14.25865032 0.89738032 16.33160092 0.8453862 18.40429688 0.78515625 C25.99446797 0.67721587 30.96325941 1.30067503 36.8125 6.5 C40.05232938 10.20266215 41.264486 12.10700907 41 17 C39.02 16.34 37.04 15.68 35 15 C36.98 15.99 38.96 16.98 41 18 C37.5779429 21.82465205 35.08997639 24.02115839 30 25 C20.97462688 25.13420629 14.70103939 21.86373014 8.25 15.75 C3.94843896 11.24784803 0 6.50025587 0 0 Z M22 11 C26 12 26 12 26 12 Z " fill="#000000" transform="translate(523,478)"/>
<path d="M0 0 C-0.33 0.99 -0.66 1.98 -1 3 C-1.04764817 4.69203958 -1.03776484 6.38602837 -0.9921875 8.078125 C-0.97542969 9.07457031 -0.95867188 10.07101562 -0.94140625 11.09765625 C-0.89746062 13.18378106 -0.84549769 15.2697538 -0.78515625 17.35546875 C-0.67756514 24.95531342 -1.31501147 29.90193631 -6.4375 35.8125 C-10.3362963 39.14074074 -10.3362963 39.14074074 -13 40 C-14.34302277 39.70814606 -15.6789271 39.37901884 -17 39 C-16.72285156 38.43152344 -16.44570313 37.86304688 -16.16015625 37.27734375 C-13.89063217 32.43946147 -12.45344816 28.32801588 -12 23 C-12.25394531 23.89203125 -12.50789062 24.7840625 -12.76953125 25.703125 C-13.28580078 27.45882813 -13.28580078 27.45882813 -13.8125 29.25 C-14.31716797 30.99023438 -14.31716797 30.99023438 -14.83203125 32.765625 C-15.89961586 35.72201315 -16.96429083 37.64347706 -19 40 C-23.08373957 35.78013578 -24.53033421 31.74870931 -25 26 C-24.59225901 18.11700755 -20.66394898 11.77921929 -15.26171875 6.20703125 C-5.67569879 -2.40125718 -5.67569879 -2.40125718 0 0 Z M-10 12 C-9 15 -9 15 -9 15 Z " fill="#000000" transform="translate(684,404)"/>
<path d="M0 0 C0 0.66 0 1.32 0 2 C-1.134375 2.66 -2.26875 3.32 -3.4375 4 C-8.18353185 6.82059544 -11.44653104 10.53419013 -15.01953125 14.6953125 C-18.60569839 18.8685642 -21.16165779 21.73776186 -26.875 22.265625 C-27.90625 22.26046875 -28.9375 22.2553125 -30 22.25 C-31.546875 22.25773437 -31.546875 22.25773437 -33.125 22.265625 C-35.94597278 22.00499165 -37.60145718 21.45296344 -40 20 C-40 18 -40 18 -39 17 C-39.99 17 -40.98 17 -42 17 C-41.34231605 10.29162374 -39.74809589 6.46608803 -34.875 1.875 C-25.1777033 -6.01294784 -10.70558832 -6.24492652 0 0 Z M-22 7 C-22.99 7.99 -23.98 8.98 -25 10 C-23.35 9.34 -21.7 8.68 -20 8 C-20.66 7.67 -21.32 7.34 -22 7 Z M-27 10 C-27.33 10.66 -27.66 11.32 -28 12 C-27.01 11.67 -26.02 11.34 -25 11 C-25.66 10.67 -26.32 10.34 -27 10 Z M-30 12 C-32.03144641 12.93446535 -34.03533587 13.93224776 -36 15 C-35.01 15.33 -34.02 15.66 -33 16 C-30.32323453 14.62750037 -30.32323453 14.62750037 -28 13 C-28.66 12.67 -29.32 12.34 -30 12 Z " fill="#000000" transform="translate(757,474)"/>
<path d="M0 0 C3.40681611 3.48793078 4.60558077 5.88525822 4.6875 10.75 C4.46318725 18.98414713 1.15453127 25.6926917 -2.17089844 33.06738281 C-3.82567129 36.92462129 -4.95316832 40.94228103 -6 45 C-3.61765021 44.95355635 -3.61765021 44.95355635 -1 44 C1.09667548 41.37195784 1.09667548 41.37195784 2.75 38.125 C3.63945313 36.52011719 3.63945313 36.52011719 4.546875 34.8828125 C6.06708308 32.03980862 6.06708308 32.03980862 7 29 C8.32 29 9.64 29 11 29 C8.80869754 37.13088544 5.35932591 45.31941112 -2 50 C-5.52224887 50.51366129 -7.27345748 50.45163454 -10.3125 48.5625 C-12.83535728 44.7314945 -13.27356348 41.55716732 -13 37 C-11.74339349 31.10721794 -9.64976215 25.53255777 -7.359375 19.97265625 C-7.08295166 19.30057129 -6.80652832 18.62848633 -6.52172852 17.93603516 C-5.97524944 16.62685234 -5.41624868 15.32281015 -4.84350586 14.02490234 C-3.70720047 11.35128503 -2.9337648 9.48546503 -3.33203125 6.56640625 C-3.55246094 6.04949219 -3.77289062 5.53257812 -4 5 C-8.84328579 7.28550284 -10.24461047 9.83036412 -12.3125 14.6875 C-13.08013672 16.45673828 -13.08013672 16.45673828 -13.86328125 18.26171875 C-14.23839844 19.16535156 -14.61351562 20.06898438 -15 21 C-16.32 21 -17.64 21 -19 21 C-17.67651863 13.10135057 -14.21445807 5.92464627 -7.765625 1.00390625 C-4.93018589 -0.60827926 -3.15023145 -0.77005658 0 0 Z " fill="#000000" transform="translate(584,693)"/>
<path d="M0 0 C1.9375 1.0625 1.9375 1.0625 3 3 C2.875 6.5625 2.875 6.5625 2 10 C-1 12 -1 12 -4.0625 11.75 C-7 11 -7 11 -9 9 C-9.3125 5.5 -9.3125 5.5 -9 2 C-5.53076119 -0.31282587 -4.07794425 -0.42478586 0 0 Z " fill="#000000" transform="translate(593,669)"/>
<path d="M0 0 C2 1 2 1 2 1 Z " fill="#000000" transform="translate(521,477)"/>
</svg>
